# Blender v2.79 (sub 0) OBJ File: ''
# www.blender.org
mtllib cylinder.mtl
o silhouette
g silhouette
v 0.000000 -2.805000 -1.100000
v 0.000000 2.805000 -1.100000
v 0.214599 -2.805000 -1.078864
v 0.214599 2.805000 -1.078864
v 0.420952 -2.805000 -1.016267
v 0.420952 2.805000 -1.016267
v 0.611127 -2.805000 -0.914617
v 0.611127 2.805000 -0.914617
v 0.777817 -2.805000 -0.777817
v 0.777817 2.805000 -0.777817
v 0.914617 -2.805000 -0.611127
v 0.914617 2.805000 -0.611127
v 1.016267 -2.805000 -0.420952
v 1.016267 2.805000 -0.420952
v 1.078864 -2.805000 -0.214599
v 1.078864 2.805000 -0.214599
v 1.100000 -2.805000 -0.000000
v 1.100000 2.805000 -0.000000
v 1.078864 -2.805000 0.214599
v 1.078864 2.805000 0.214599
v 1.016268 -2.805000 0.420952
v 1.016268 2.805000 0.420952
v 0.914617 -2.805000 0.611127
v 0.914617 2.805000 0.611127
v 0.777817 -2.805000 0.777817
v 0.777817 2.805000 0.777817
v 0.611127 -2.805000 0.914617
v 0.611127 2.805000 0.914617
v 0.420952 -2.805000 1.016268
v 0.420952 2.805000 1.016268
v 0.214599 -2.805000 1.078864
v 0.214599 2.805000 1.078864
v -0.000000 -2.805000 1.100000
v -0.000000 2.805000 1.100000
v -0.214600 -2.805000 1.078864
v -0.214600 2.805000 1.078864
v -0.420952 -2.805000 1.016267
v -0.420952 2.805000 1.016267
v -0.611128 -2.805000 0.914616
v -0.611128 2.805000 0.914616
v -0.777818 -2.805000 0.777817
v -0.777818 2.805000 0.777817
v -0.914617 -2.805000 0.611127
v -0.914617 2.805000 0.611127
v -1.016268 -2.805000 0.420951
v -1.016268 2.805000 0.420951
v -1.078864 -2.805000 0.214598
v -1.078864 2.805000 0.214598
v -1.100000 -2.805000 -0.000001
v -1.100000 2.805000 -0.000001
v -1.078864 -2.805000 -0.214600
v -1.078864 2.805000 -0.214600
v -1.016267 -2.805000 -0.420953
v -1.016267 2.805000 -0.420953
v -0.914616 -2.805000 -0.611128
v -0.914616 2.805000 -0.611128
v -0.777816 -2.805000 -0.777818
v -0.777816 2.805000 -0.777818
v -0.611126 -2.805000 -0.914617
v -0.611126 2.805000 -0.914617
v -0.420950 -2.805000 -1.016268
v -0.420950 2.805000 -1.016268
v -0.214598 -2.805000 -1.078864
v -0.214598 2.805000 -1.078864
vn 0.0000 0.6857 0.7279
vn -0.1420 0.6857 0.7139
vn -0.1420 -0.6857 0.7139
vn 0.0000 -0.6857 0.7279
vn -0.2785 0.6857 0.6725
vn -0.2785 -0.6857 0.6725
vn -0.4044 0.6857 0.6052
vn -0.4044 -0.6857 0.6052
vn -0.5147 0.6857 0.5147
vn -0.5147 -0.6857 0.5147
vn -0.6052 0.6857 0.4044
vn -0.6052 -0.6857 0.4044
vn -0.6725 0.6857 0.2785
vn -0.6725 -0.6857 0.2785
vn -0.7139 0.6857 0.1420
vn -0.7139 -0.6857 0.1420
vn -0.7279 0.6857 0.0000
vn -0.7279 -0.6857 0.0000
vn -0.7139 0.6857 -0.1420
vn -0.7139 -0.6857 -0.1420
vn -0.6725 0.6857 -0.2785
vn -0.6725 -0.6857 -0.2785
vn -0.6052 0.6857 -0.4044
vn -0.6052 -0.6857 -0.4044
vn -0.5147 0.6857 -0.5147
vn -0.5147 -0.6857 -0.5147
vn -0.4044 0.6857 -0.6052
vn -0.4044 -0.6857 -0.6052
vn -0.2785 0.6857 -0.6725
vn -0.2785 -0.6857 -0.6725
vn -0.1420 0.6857 -0.7139
vn -0.1420 -0.6857 -0.7139
vn 0.0000 0.6857 -0.7279
vn 0.0000 -0.6857 -0.7279
vn 0.1420 0.6857 -0.7139
vn 0.1420 -0.6857 -0.7139
vn 0.2785 0.6857 -0.6725
vn 0.2785 -0.6857 -0.6725
vn 0.4044 0.6857 -0.6052
vn 0.4044 -0.6857 -0.6052
vn 0.5147 0.6857 -0.5147
vn 0.5147 -0.6857 -0.5147
vn 0.6052 0.6857 -0.4044
vn 0.6052 -0.6857 -0.4044
vn 0.6725 0.6857 -0.2785
vn 0.6725 -0.6857 -0.2785
vn 0.7139 0.6857 -0.1420
vn 0.7139 -0.6857 -0.1420
vn 0.7279 0.6857 0.0000
vn 0.7279 -0.6857 0.0000
vn 0.7139 0.6857 0.1420
vn 0.7139 -0.6857 0.1420
vn 0.6725 0.6857 0.2785
vn 0.6725 -0.6857 0.2785
vn 0.6052 0.6857 0.4044
vn 0.6052 -0.6857 0.4044
vn 0.5147 0.6857 0.5147
vn 0.5147 -0.6857 0.5147
vn 0.4044 0.6857 0.6052
vn 0.4044 -0.6857 0.6052
vn 0.2785 0.6857 0.6725
vn 0.2785 -0.6857 0.6725
vn 0.1420 -0.6857 0.7139
vn 0.1420 0.6857 0.7139
usemtl Silhouette
s 1
f 1//1 3//2 4//3 2//4
f 3//2 5//5 6//6 4//3
f 5//5 7//7 8//8 6//6
f 7//7 9//9 10//10 8//8
f 9//9 11//11 12//12 10//10
f 11//11 13//13 14//14 12//12
f 13//13 15//15 16//16 14//14
f 15//15 17//17 18//18 16//16
f 17//17 19//19 20//20 18//18
f 19//19 21//21 22//22 20//20
f 21//21 23//23 24//24 22//22
f 23//23 25//25 26//26 24//24
f 25//25 27//27 28//28 26//26
f 27//27 29//29 30//30 28//28
f 29//29 31//31 32//32 30//30
f 31//31 33//33 34//34 32//32
f 33//33 35//35 36//36 34//34
f 35//35 37//37 38//38 36//36
f 37//37 39//39 40//40 38//38
f 39//39 41//41 42//42 40//40
f 41//41 43//43 44//44 42//42
f 43//43 45//45 46//46 44//44
f 45//45 47//47 48//48 46//46
f 47//47 49//49 50//50 48//48
f 49//49 51//51 52//52 50//50
f 51//51 53//53 54//54 52//52
f 53//53 55//55 56//56 54//54
f 55//55 57//57 58//58 56//56
f 57//57 59//59 60//60 58//58
f 59//59 61//61 62//62 60//60
f 4//3 6//6 8//8 10//10 12//12 14//14 16//16 18//18 20//20 22//22 24//24 26//26 28//28 30//30 32//32 34//34 36//36 38//38 40//40 42//42 44//44 46//46 48//48 50//50 52//52 54//54 56//56 58//58 60//60 62//62 64//63 2//4
f 61//61 63//64 64//63 62//62
f 63//64 1//1 2//4 64//63
f 1//1 63//64 61//61 59//59 57//57 55//55 53//53 51//51 49//49 47//47 45//45 43//43 41//41 39//39 37//37 35//35 33//33 31//31 29//29 27//27 25//25 23//23 21//21 19//19 17//17 15//15 13//13 11//11 9//9 7//7 5//5 3//2
o core
g core
v 0.000000 -2.750000 -1.000000
v 0.000000 2.750000 -1.000000
v 0.195090 -2.750000 -0.980785
v 0.195090 2.750000 -0.980785
v 0.382683 -2.750000 -0.923880
v 0.382683 2.750000 -0.923880
v 0.555570 -2.750000 -0.831470
v 0.555570 2.750000 -0.831470
v 0.707107 -2.750000 -0.707107
v 0.707107 2.750000 -0.707107
v 0.831470 -2.750000 -0.555570
v 0.831470 2.750000 -0.555570
v 0.923880 -2.750000 -0.382683
v 0.923880 2.750000 -0.382683
v 0.980785 -2.750000 -0.195090
v 0.980785 2.750000 -0.195090
v 1.000000 -2.750000 -0.000000
v 1.000000 2.750000 -0.000000
v 0.980785 -2.750000 0.195090
v 0.980785 2.750000 0.195090
v 0.923880 -2.750000 0.382683
v 0.923880 2.750000 0.382683
v 0.831470 -2.750000 0.555570
v 0.831470 2.750000 0.555570
v 0.707107 -2.750000 0.707107
v 0.707107 2.750000 0.707107
v 0.555570 -2.750000 0.831470
v 0.555570 2.750000 0.831470
v 0.382683 -2.750000 0.923880
v 0.382683 2.750000 0.923880
v 0.195090 -2.750000 0.980785
v 0.195090 2.750000 0.980785
v -0.000000 -2.750000 1.000000
v -0.000000 2.750000 1.000000
v -0.195091 -2.750000 0.980785
v -0.195091 2.750000 0.980785
v -0.382684 -2.750000 0.923879
v -0.382684 2.750000 0.923879
v -0.555571 -2.750000 0.831469
v -0.555571 2.750000 0.831469
v -0.707107 -2.750000 0.707106
v -0.707107 2.750000 0.707106
v -0.831470 -2.750000 0.555570
v -0.831470 2.750000 0.555570
v -0.923880 -2.750000 0.382683
v -0.923880 2.750000 0.382683
v -0.980785 -2.750000 0.195089
v -0.980785 2.750000 0.195089
v -1.000000 -2.750000 -0.000001
v -1.000000 2.750000 -0.000001
v -0.980785 -2.750000 -0.195091
v -0.980785 2.750000 -0.195091
v -0.923879 -2.750000 -0.382684
v -0.923879 2.750000 -0.382684
v -0.831469 -2.750000 -0.555571
v -0.831469 2.750000 -0.555571
v -0.707106 -2.750000 -0.707108
v -0.707106 2.750000 -0.707108
v -0.555569 -2.750000 -0.831470
v -0.555569 2.750000 -0.831470
v -0.382682 -2.750000 -0.923880
v -0.382682 2.750000 -0.923880
v -0.195089 -2.750000 -0.980786
v -0.195089 2.750000 -0.980786
vn 0.0000 -0.6857 -0.7279
vn 0.0000 0.6857 -0.7279
vn 0.1420 0.6857 -0.7139
vn 0.1420 -0.6857 -0.7139
vn 0.2785 0.6857 -0.6725
vn 0.2785 -0.6857 -0.6725
vn 0.4044 0.6857 -0.6052
vn 0.4044 -0.6857 -0.6052
vn 0.5147 0.6857 -0.5147
vn 0.5147 -0.6857 -0.5147
vn 0.6052 0.6857 -0.4044
vn 0.6052 -0.6857 -0.4044
vn 0.6725 0.6857 -0.2785
vn 0.6725 -0.6857 -0.2785
vn 0.7139 0.6857 -0.1420
vn 0.7139 -0.6857 -0.1420
vn 0.7279 0.6857 0.0000
vn 0.7279 -0.6857 0.0000
vn 0.7139 0.6857 0.1420
vn 0.7139 -0.6857 0.1420
vn 0.6725 0.6857 0.2785
vn 0.6725 -0.6857 0.2785
vn 0.6052 0.6857 0.4044
vn 0.6052 -0.6857 0.4044
vn 0.5147 0.6857 0.5147
vn 0.5147 -0.6857 0.5147
vn 0.4044 0.6857 0.6052
vn 0.4044 -0.6857 0.6052
vn 0.2785 0.6857 0.6725
vn 0.2785 -0.6857 0.6725
vn 0.1420 0.6857 0.7139
vn 0.1420 -0.6857 0.7139
vn 0.0000 0.6857 0.7279
vn 0.0000 -0.6857 0.7279
vn -0.1420 0.6857 0.7139
vn -0.1420 -0.6857 0.7139
vn -0.2785 0.6857 0.6725
vn -0.2785 -0.6857 0.6725
vn -0.4044 0.6857 0.6052
vn -0.4044 -0.6857 0.6052
vn -0.5147 0.6857 0.5147
vn -0.5147 -0.6857 0.5147
vn -0.6052 0.6857 0.4044
vn -0.6052 -0.6857 0.4044
vn -0.6725 0.6857 0.2785
vn -0.6725 -0.6857 0.2785
vn -0.7139 0.6857 0.1420
vn -0.7139 -0.6857 0.1420
vn -0.7279 0.6857 0.0000
vn -0.7279 -0.6857 0.0000
vn -0.7139 0.6857 -0.1420
vn -0.7139 -0.6857 -0.1420
vn -0.6725 0.6857 -0.2785
vn -0.6725 -0.6857 -0.2785
vn -0.6052 0.6857 -0.4044
vn -0.6052 -0.6857 -0.4044
vn -0.5147 0.6857 -0.5147
vn -0.5147 -0.6857 -0.5147
vn -0.4044 0.6857 -0.6052
vn -0.4044 -0.6857 -0.6052
vn -0.2785 0.6857 -0.6725
vn -0.2785 -0.6857 -0.6725
vn -0.1420 0.6857 -0.7139
vn -0.1420 -0.6857 -0.7139
usemtl icosahedron_default
s 1
f 65//65 66//66 68//67 67//68
f 67//68 68//67 70//69 69//70
f 69//70 70//69 72//71 71//72
f 71//72 72//71 74//73 73//74
f 73//74 74//73 76//75 75//76
f 75//76 76//75 78//77 77//78
f 77//78 78//77 80//79 79//80
f 79//80 80//79 82//81 81//82
f 81//82 82//81 84//83 83//84
f 83//84 84//83 86//85 85//86
f 85//86 86//85 88//87 87//88
f 87//88 88//87 90//89 89//90
f 89//90 90//89 92//91 91//92
f 91//92 92//91 94//93 93//94
f 93//94 94//93 96//95 95//96
f 95//96 96//95 98//97 97//98
f 97//98 98//97 100//99 99//100
f 99//100 100//99 102//101 101//102
f 101//102 102//101 104//103 103//104
f 103//104 104//103 106//105 105//106
f 105//106 106//105 108//107 107//108
f 107//108 108//107 110//109 109//110
f 109//110 110//109 112//111 111//112
f 111//112 112//111 114//113 113//114
f 113//114 114//113 116//115 115//116
f 115//116 116//115 118//117 117//118
f 117//118 118//117 120//119 119//120
f 119//120 120//119 122//121 121//122
f 121//122 122//121 124//123 123//124
f 123//124 124//123 126//125 125//126
f 68//67 66//66 128//127 126//125 124//123 122//121 120//119 118//117 116//115 114//113 112//111 110//109 108//107 106//105 104//103 102//101 100//99 98//97 96//95 94//93 92//91 90//89 88//87 86//85 84//83 82//81 80//79 78//77 76//75 74//73 72//71 70//69
f 125//126 126//125 128//127 127//128
f 127//128 128//127 66//66 65//65
f 65//65 67//68 69//70 71//72 73//74 75//76 77//78 79//80 81//82 83//84 85//86 87//88 89//90 91//92 93//94 95//96 97//98 99//100 101//102 103//104 105//106 107//108 109//110 111//112 113//114 115//116 117//118 119//120 121//122 123//124 125//126 127//128
