# Blender v2.92.0 OBJ File: ''
# www.blender.org
mtllib sphere.mtl
o core
g core
v 0.000000 -1.000000 0.000000
v 0.723607 -0.447220 0.525725
v -0.276388 -0.447220 0.850649
v -0.894426 -0.447216 0.000000
v -0.276388 -0.447220 -0.850649
v 0.723607 -0.447220 -0.525725
v 0.276388 0.447220 0.850649
v -0.723607 0.447220 0.525725
v -0.723607 0.447220 -0.525725
v 0.276388 0.447220 -0.850649
v 0.894426 0.447216 0.000000
v 0.000000 1.000000 0.000000
v -0.162456 -0.850654 0.499995
v 0.425323 -0.850654 0.309011
v 0.262869 -0.525738 0.809012
v 0.850648 -0.525736 0.000000
v 0.425323 -0.850654 -0.309011
v -0.525730 -0.850652 0.000000
v -0.688189 -0.525736 0.499997
v -0.162456 -0.850654 -0.499995
v -0.688189 -0.525736 -0.499997
v 0.262869 -0.525738 -0.809012
v 0.951058 0.000000 0.309013
v 0.951058 0.000000 -0.309013
v 0.000000 0.000000 1.000000
v 0.587786 0.000000 0.809017
v -0.951058 0.000000 0.309013
v -0.587786 0.000000 0.809017
v -0.587786 0.000000 -0.809017
v -0.951058 0.000000 -0.309013
v 0.587786 0.000000 -0.809017
v 0.000000 0.000000 -1.000000
v 0.688189 0.525736 0.499997
v -0.262869 0.525738 0.809012
v -0.850648 0.525736 0.000000
v -0.262869 0.525738 -0.809012
v 0.688189 0.525736 -0.499997
v 0.162456 0.850654 0.499995
v 0.525730 0.850652 0.000000
v -0.425323 0.850654 0.309011
v -0.425323 0.850654 -0.309011
v 0.162456 0.850654 -0.499995
vt 0.818181 0.000000
vt 0.772726 0.078731
vt 0.863635 0.078731
vt 0.727272 0.157461
vt 0.681818 0.078731
vt 0.636363 0.157461
vt 0.090909 0.000000
vt 0.045454 0.078731
vt 0.136363 0.078731
vt 0.272727 0.000000
vt 0.227273 0.078731
vt 0.318182 0.078731
vt 0.454545 0.000000
vt 0.409090 0.078731
vt 0.500000 0.078731
vt 0.681818 0.236191
vt 0.909090 0.157461
vt 0.818181 0.157461
vt 0.863635 0.236191
vt 0.181818 0.157461
vt 0.090909 0.157461
vt 0.136363 0.236191
vt 0.363636 0.157461
vt 0.272727 0.157461
vt 0.318182 0.236191
vt 0.545454 0.157461
vt 0.454545 0.157461
vt 0.500000 0.236191
vt 0.772726 0.236191
vt 0.954545 0.236191
vt 0.227273 0.236191
vt 0.409090 0.236191
vt 0.590909 0.236191
vt 0.818181 0.314921
vt 0.727272 0.314921
vt 0.772726 0.393651
vt 1.000000 0.314921
vt 0.909091 0.314921
vt 0.954545 0.393651
vt 0.272727 0.314921
vt 0.181818 0.314921
vt 0.227273 0.393651
vt 0.454545 0.314921
vt 0.363636 0.314921
vt 0.409090 0.393651
vt 0.636363 0.314921
vt 0.545454 0.314921
vt 0.590909 0.393651
vt 0.500000 0.393651
vt 0.545454 0.472382
vt 0.318182 0.393651
vt 0.363636 0.472382
vt 0.136363 0.393651
vt 0.181818 0.472382
vt 0.090909 0.314921
vt 0.863635 0.393651
vt 0.909090 0.472382
vt 0.681818 0.393651
vt 0.727272 0.472382
vt 0.045454 0.236191
vt 0.000000 0.157461
vt 0.590909 0.078731
vt 0.636363 0.000000
vn -0.0000 -1.0000 0.0000
vn 0.4253 -0.8507 0.3090
vn -0.1625 -0.8507 0.5000
vn 0.7236 -0.4472 0.5257
vn 0.4253 -0.8506 0.3090
vn 0.8506 -0.5257 0.0000
vn -0.5257 -0.8507 0.0000
vn -0.1625 -0.8507 -0.5000
vn 0.4253 -0.8507 -0.3090
vn 0.8507 -0.5257 0.0000
vn 0.9511 -0.0000 0.3090
vn -0.2764 -0.4472 0.8506
vn 0.2629 -0.5257 0.8090
vn -0.0000 -0.0000 1.0000
vn -0.8944 -0.4472 0.0000
vn -0.6882 -0.5257 0.5000
vn -0.9511 -0.0000 0.3090
vn -0.2764 -0.4472 -0.8506
vn -0.6882 -0.5257 -0.5000
vn -0.5878 -0.0000 -0.8090
vn 0.7236 -0.4472 -0.5257
vn 0.2629 -0.5257 -0.8090
vn 0.5878 -0.0000 -0.8090
vn 0.5878 -0.0000 0.8090
vn -0.2764 -0.4472 0.8507
vn -0.5878 -0.0000 0.8090
vn -0.9511 -0.0000 -0.3090
vn -0.2764 -0.4472 -0.8507
vn -0.0000 -0.0000 -1.0000
vn 0.9511 -0.0000 -0.3090
vn 0.2764 0.4472 0.8506
vn 0.6882 0.5257 0.5000
vn 0.1625 0.8506 0.5000
vn -0.7236 0.4472 0.5257
vn -0.2629 0.5257 0.8090
vn -0.4253 0.8506 0.3090
vn -0.7236 0.4472 -0.5257
vn -0.8506 0.5257 -0.0000
vn -0.4253 0.8506 -0.3090
vn 0.2764 0.4472 -0.8507
vn -0.2629 0.5257 -0.8090
vn 0.1625 0.8506 -0.5000
vn 0.8944 0.4472 -0.0000
vn 0.6882 0.5257 -0.5000
vn 0.5257 0.8506 0.0000
vn 0.5257 0.8507 -0.0000
vn 0.1625 0.8507 -0.5000
vn -0.0000 1.0000 -0.0000
vn 0.5258 0.8506 -0.0000
vn 0.2764 0.4472 -0.8506
vn -0.4253 0.8507 -0.3090
vn 0.1624 0.8507 -0.5000
vn -0.4253 0.8507 0.3090
vn 0.1625 0.8507 0.5000
vn -0.2628 0.5257 0.8090
vn 0.1624 0.8507 0.5000
vn 0.2764 0.4472 0.8507
vn -0.8507 0.5257 -0.0000
vn 0.4253 -0.8506 -0.3090
vn -0.1624 -0.8507 -0.5000
vn 0.2628 -0.5257 -0.8090
vn -0.1625 -0.8506 -0.5000
vn -0.5258 -0.8506 -0.0000
vn -0.5257 -0.8506 0.0000
vn -0.1625 -0.8506 0.5000
vn -0.1624 -0.8507 0.5000
vn 0.2628 -0.5257 0.8090
usemtl icosahedron_default
s off
f 1/1/1 14/2/2 13/3/3
f 2/4/4 14/5/5 16/6/6
f 1/7/1 13/8/3 18/9/7
f 1/10/1 18/11/7 20/12/8
f 1/13/1 20/14/8 17/15/9
f 2/4/4 16/6/10 23/16/11
f 3/17/12 15/18/13 25/19/14
f 4/20/15 19/21/16 27/22/17
f 5/23/18 21/24/19 29/25/20
f 6/26/21 22/27/22 31/28/23
f 2/4/4 23/16/11 26/29/24
f 3/17/25 25/19/14 28/30/26
f 4/20/15 27/22/17 30/31/27
f 5/23/28 29/25/20 32/32/29
f 6/26/21 31/28/23 24/33/30
f 7/34/31 33/35/32 38/36/33
f 8/37/34 34/38/35 40/39/36
f 9/40/37 35/41/38 41/42/39
f 10/43/40 36/44/41 42/45/42
f 11/46/43 37/47/44 39/48/45
f 39/48/46 42/49/47 12/50/48
f 39/48/49 37/47/44 42/49/47
f 37/47/44 10/43/50 42/49/42
f 42/45/47 41/51/51 12/52/48
f 42/45/52 36/44/41 41/51/39
f 36/44/41 9/40/37 41/51/39
f 41/42/51 40/53/53 12/54/48
f 41/42/51 35/41/38 40/53/53
f 35/41/38 8/55/34 40/53/36
f 40/39/53 38/56/54 12/57/48
f 40/39/36 34/38/55 38/56/56
f 34/38/35 7/34/57 38/56/33
f 38/36/54 39/58/46 12/59/48
f 38/36/54 33/35/32 39/58/49
f 33/35/32 11/46/43 39/58/45
f 24/33/30 37/47/44 11/46/43
f 24/33/30 31/28/23 37/47/44
f 31/28/23 10/43/50 37/47/44
f 32/32/29 36/44/41 10/43/50
f 32/32/29 29/25/20 36/44/41
f 29/25/20 9/40/37 36/44/41
f 30/31/27 35/41/58 9/40/37
f 30/31/27 27/22/17 35/41/58
f 27/22/17 8/55/34 35/41/58
f 28/30/26 34/38/35 8/37/34
f 28/30/26 25/19/14 34/38/35
f 25/19/14 7/34/31 34/38/35
f 26/29/24 33/35/32 7/34/31
f 26/29/24 23/16/11 33/35/32
f 23/16/11 11/46/43 33/35/32
f 31/28/23 32/32/29 10/43/40
f 31/28/23 22/27/22 32/32/29
f 22/27/22 5/23/18 32/32/29
f 29/25/20 30/31/27 9/40/37
f 29/25/20 21/24/19 30/31/27
f 21/24/19 4/20/15 30/31/27
f 27/22/17 28/60/26 8/55/34
f 27/22/17 19/21/16 28/60/26
f 19/21/16 3/61/12 28/60/26
f 25/19/14 26/29/24 7/34/57
f 25/19/14 15/18/13 26/29/24
f 15/18/13 2/4/4 26/29/24
f 23/16/11 24/33/30 11/46/43
f 23/16/11 16/6/10 24/33/30
f 16/6/10 6/26/21 24/33/30
f 17/15/59 22/27/22 6/26/21
f 17/15/9 20/14/60 22/27/61
f 20/14/62 5/23/28 22/27/22
f 20/12/62 21/24/19 5/23/18
f 20/12/8 18/11/63 21/24/19
f 18/11/64 4/20/15 21/24/19
f 18/9/64 19/21/16 4/20/15
f 18/9/63 13/8/3 19/21/16
f 13/8/65 3/61/12 19/21/16
f 16/6/6 17/62/59 6/26/21
f 16/6/6 14/5/2 17/62/9
f 14/5/2 1/63/1 17/62/9
f 13/3/65 15/18/13 3/17/25
f 13/3/66 14/2/5 15/18/67
f 14/2/5 2/4/4 15/18/13
o Big_Sphere_Icosphere.001
v 0.000000 -1.200000 0.000000
v 0.868329 -0.536663 0.630870
v -0.331666 -0.536664 1.020779
v -1.073312 -0.536659 0.000000
v -0.331666 -0.536664 -1.020779
v 0.868329 -0.536663 -0.630870
v 0.331666 0.536664 1.020779
v -0.868329 0.536663 0.630870
v -0.868329 0.536663 -0.630870
v 0.331666 0.536664 -1.020779
v 1.073312 0.536659 0.000000
v 0.000000 1.200000 0.000000
v -0.194947 -1.020785 0.599994
v 0.510387 -1.020785 0.370814
v 0.315443 -0.630885 0.970814
v 1.020777 -0.630883 0.000000
v 0.510387 -1.020785 -0.370814
v -0.630876 -1.020782 0.000000
v -0.825827 -0.630883 0.599996
v -0.194947 -1.020785 -0.599994
v -0.825827 -0.630883 -0.599996
v 0.315443 -0.630885 -0.970814
v 1.141269 0.000000 0.370815
v 1.141269 0.000000 -0.370815
v 0.000000 0.000000 1.200000
v 0.705343 0.000000 0.970820
v -1.141269 0.000000 0.370815
v -0.705343 0.000000 0.970820
v -0.705343 0.000000 -0.970820
v -1.141269 0.000000 -0.370815
v 0.705343 0.000000 -0.970820
v 0.000000 0.000000 -1.200000
v 0.825827 0.630883 0.599996
v -0.315443 0.630885 0.970814
v -1.020777 0.630883 0.000000
v -0.315443 0.630885 -0.970814
v 0.825827 0.630883 -0.599996
v 0.194947 1.020785 0.599994
v 0.630876 1.020782 0.000000
v -0.510387 1.020785 0.370814
v -0.510387 1.020785 -0.370814
v 0.194947 1.020785 -0.599994
vt 0.818181 0.000000
vt 0.863635 0.078731
vt 0.772726 0.078731
vt 0.727272 0.157461
vt 0.636363 0.157461
vt 0.681818 0.078731
vt 0.090909 0.000000
vt 0.136363 0.078731
vt 0.045454 0.078731
vt 0.272727 0.000000
vt 0.318182 0.078731
vt 0.227273 0.078731
vt 0.454545 0.000000
vt 0.500000 0.078731
vt 0.409090 0.078731
vt 0.681818 0.236191
vt 0.909090 0.157461
vt 0.863635 0.236191
vt 0.818181 0.157461
vt 0.181818 0.157461
vt 0.136363 0.236191
vt 0.090909 0.157461
vt 0.363636 0.157461
vt 0.318182 0.236191
vt 0.272727 0.157461
vt 0.545454 0.157461
vt 0.500000 0.236191
vt 0.454545 0.157461
vt 0.772726 0.236191
vt 0.954545 0.236191
vt 0.227273 0.236191
vt 0.409090 0.236191
vt 0.590909 0.236191
vt 0.818181 0.314921
vt 0.772726 0.393651
vt 0.727272 0.314921
vt 1.000000 0.314921
vt 0.954545 0.393651
vt 0.909091 0.314921
vt 0.272727 0.314921
vt 0.227273 0.393651
vt 0.181818 0.314921
vt 0.454545 0.314921
vt 0.409090 0.393651
vt 0.363636 0.314921
vt 0.636363 0.314921
vt 0.590909 0.393651
vt 0.545454 0.314921
vt 0.545454 0.472382
vt 0.500000 0.393651
vt 0.363636 0.472382
vt 0.318182 0.393651
vt 0.181818 0.472382
vt 0.136363 0.393651
vt 0.090909 0.314921
vt 0.909090 0.472382
vt 0.863635 0.393651
vt 0.727272 0.472382
vt 0.681818 0.393651
vt 0.045454 0.236191
vt 0.000000 0.157461
vt 0.590909 0.078731
vt 0.636363 0.000000
vn 0.0000 1.0000 -0.0000
vn 0.1624 0.8507 -0.5000
vn -0.4253 0.8507 -0.3090
vn -0.7236 0.4472 -0.5257
vn -0.8506 0.5257 -0.0000
vn -0.4253 0.8506 -0.3090
vn 0.5257 0.8507 -0.0000
vn 0.1625 0.8507 -0.5000
vn 0.1625 0.8507 0.5000
vn -0.4253 0.8507 0.3090
vn 0.1624 0.8507 0.5000
vn -0.9511 0.0000 -0.3090
vn -0.8507 0.5257 -0.0000
vn 0.2764 0.4472 -0.8506
vn -0.0000 0.0000 -1.0000
vn -0.2629 0.5257 -0.8090
vn 0.8944 0.4472 -0.0000
vn 0.9511 0.0000 -0.3090
vn 0.6882 0.5257 -0.5000
vn 0.2764 0.4472 0.8506
vn 0.5878 0.0000 0.8090
vn 0.6882 0.5257 0.5000
vn -0.7236 0.4472 0.5257
vn -0.5878 0.0000 0.8090
vn -0.2629 0.5257 0.8090
vn -0.5878 0.0000 -0.8090
vn 0.2764 0.4472 -0.8507
vn 0.5878 0.0000 -0.8090
vn 0.9511 0.0000 0.3090
vn 0.2764 0.4472 0.8507
vn 0.0000 0.0000 1.0000
vn -0.9511 0.0000 0.3090
vn -0.2764 -0.4472 -0.8506
vn -0.1625 -0.8506 -0.5000
vn -0.6882 -0.5257 -0.5000
vn 0.7236 -0.4472 -0.5258
vn 0.4253 -0.8506 -0.3090
vn 0.2629 -0.5257 -0.8090
vn 0.7236 -0.4472 0.5257
vn 0.4253 -0.8506 0.3090
vn 0.8506 -0.5257 0.0000
vn -0.2764 -0.4472 0.8507
vn -0.1625 -0.8506 0.5000
vn 0.2629 -0.5257 0.8090
vn -0.8944 -0.4472 0.0000
vn -0.5257 -0.8506 0.0000
vn -0.6882 -0.5257 0.5000
vn -0.5257 -0.8507 0.0000
vn 0.0000 -1.0000 0.0000
vn -0.1625 -0.8507 0.5000
vn -0.5258 -0.8506 0.0000
vn -0.2764 -0.4472 0.8506
vn -0.1624 -0.8507 0.5000
vn 0.4253 -0.8507 0.3090
vn 0.7236 -0.4472 0.5258
vn 0.4253 -0.8507 -0.3090
vn 0.7236 -0.4472 -0.5257
vn -0.1624 -0.8507 -0.5000
vn 0.2628 -0.5257 -0.8090
vn -0.2764 -0.4472 -0.8507
vn -0.1625 -0.8507 -0.5000
vn 0.8507 -0.5257 0.0000
vn -0.4253 0.8506 0.3090
vn -0.7236 0.4472 0.5258
vn -0.2628 0.5257 0.8090
vn 0.1625 0.8506 0.5000
vn 0.5258 0.8506 0.0000
vn 0.5257 0.8506 0.0000
vn 0.1625 0.8506 -0.5000
vn -0.2628 0.5257 -0.8090
vn -0.7236 0.4472 -0.5258
