# 3ds Max Wavefront OBJ Exporter v0.97b - (c)2007 guruware
# File Created: 02.04.2019 17:09:18

mtllib target.mtl

#
# object core
#

v  -0.016 0.000 1.007
v  0.260 0.851 0.454
v  -0.740 0.526 0.454
v  -0.740 -0.526 0.454
v  0.260 -0.851 0.454
v  0.878 0.000 0.454
v  -0.292 0.851 -0.440
v  0.708 0.526 -0.440
v  -0.016 0.000 -0.993
v  -0.910 0.000 -0.440
v  -0.292 -0.851 -0.440
v  0.708 -0.526 -0.440
# 12 vertices

vn -0.152 -0.110 0.982
vn 0.187 0.934 0.304
vn -0.724 0.526 0.447
vn -0.724 -0.526 0.447
vn 0.276 -0.851 0.447
vn 0.946 -0.110 0.304
vn -0.276 0.851 -0.447
vn 0.724 0.526 -0.447
vn -0.000 0.000 -1.000
vn -0.894 0.000 -0.447
vn -0.276 -0.851 -0.447
vn 0.724 -0.526 -0.447
vn 0.491 0.357 0.794
# 13 vertex normals

vt 0.000 0.000 0.000
# 1 texture coords

o core
g core
usemtl icosahedron_default
f -12/-1/-13 -11/-1/-12 -10/-1/-11 
f -12/-1/-13 -10/-1/-11 -9/-1/-10 
f -12/-1/-13 -9/-1/-10 -8/-1/-9 
f -12/-1/-13 -8/-1/-9 -7/-1/-8 
f -6/-1/-7 -5/-1/-6 -4/-1/-5 
f -3/-1/-4 -6/-1/-7 -4/-1/-5 
f -2/-1/-3 -3/-1/-4 -4/-1/-5 
f -1/-1/-2 -2/-1/-3 -4/-1/-5 
f -5/-1/-6 -1/-1/-2 -4/-1/-5 
f -5/-1/-6 -11/-1/-12 -7/-1/-8 
f -6/-1/-7 -10/-1/-11 -11/-1/-12 
f -3/-1/-4 -9/-1/-10 -10/-1/-11 
f -2/-1/-3 -8/-1/-9 -9/-1/-10 
f -1/-1/-2 -7/-1/-8 -8/-1/-9 
f -5/-1/-6 -6/-1/-7 -11/-1/-12 
f -6/-1/-7 -3/-1/-4 -10/-1/-11 
f -3/-1/-4 -2/-1/-3 -9/-1/-10 
f -2/-1/-3 -1/-1/-2 -8/-1/-9 
f -1/-1/-2 -5/-1/-6 -7/-1/-8 
f -7/-1/-1 -11/-1/-1 -12/-1/-1 
# 20 faces

#
# object silhouette
#

v  -0.016 0.000 1.207
v  -0.885 0.631 0.544
v  0.315 1.021 0.544
v  -0.885 -0.631 0.544
v  0.315 -1.021 0.544
v  1.057 0.000 0.544
v  -0.347 1.021 -0.529
v  -0.016 0.000 -1.193
v  0.853 0.631 -0.529
v  -1.089 0.000 -0.529
v  -0.347 -1.021 -0.529
v  0.853 -0.631 -0.529
# 12 vertices

vn 0.152 0.110 -0.982
vn 0.724 -0.526 -0.447
vn -0.187 -0.934 -0.304
vn 0.724 0.526 -0.447
vn -0.276 0.851 -0.447
vn -0.946 0.110 -0.304
vn 0.276 -0.851 0.447
vn 0.000 0.000 1.000
vn -0.724 -0.526 0.447
vn 0.894 0.000 0.447
vn 0.276 0.851 0.447
vn -0.724 0.526 0.447
vn -0.491 -0.357 -0.794
# 13 vertex normals

vt 0.000 0.000 0.000
# 1 texture coords

o silhouette
g silhouette
usemtl Silhouette
f -12/-1/-13 -11/-1/-12 -10/-1/-11 
f -12/-1/-13 -9/-1/-10 -11/-1/-12 
f -12/-1/-13 -8/-1/-9 -9/-1/-10 
f -12/-1/-13 -7/-1/-8 -8/-1/-9 
f -6/-1/-7 -5/-1/-6 -4/-1/-5 
f -3/-1/-4 -5/-1/-6 -6/-1/-7 
f -2/-1/-3 -5/-1/-6 -3/-1/-4 
f -1/-1/-2 -5/-1/-6 -2/-1/-3 
f -4/-1/-5 -5/-1/-6 -1/-1/-2 
f -4/-1/-5 -7/-1/-8 -10/-1/-11 
f -6/-1/-7 -10/-1/-11 -11/-1/-12 
f -3/-1/-4 -11/-1/-12 -9/-1/-10 
f -2/-1/-3 -9/-1/-10 -8/-1/-9 
f -1/-1/-2 -8/-1/-9 -7/-1/-8 
f -4/-1/-5 -10/-1/-11 -6/-1/-7 
f -6/-1/-7 -11/-1/-12 -3/-1/-4 
f -3/-1/-4 -9/-1/-10 -2/-1/-3 
f -2/-1/-3 -8/-1/-9 -1/-1/-2 
f -1/-1/-2 -7/-1/-8 -4/-1/-5 
f -7/-1/-1 -12/-1/-1 -10/-1/-1 
# 20 faces

