# WaveFront *.obj file (generated by Autodesk ATF)

mtllib SquareMap.mtl

g Walls

v -20.000000 0.000000 -20.000000
v 20.000000 0.000000 -20.000000
v 20.000000 15.000000 -20.000000
v -20.000000 15.000000 -20.000000
v -20.000000 0.000000 20.000000
v -20.000000 15.000000 20.000000
v 20.000000 0.000000 20.000000
v 20.000000 15.000000 20.000000
v 20.500000 0.000000 -20.500000
v -20.500000 0.000000 -20.500000
v -20.500000 15.000000 -20.500000
v 20.500000 15.000000 -20.500000
v 20.500000 0.000000 20.500000
v 20.500000 15.000000 20.500000
v -20.500000 0.000000 20.500000
v -20.500000 15.000000 20.500000
vt 0.000000 0.000000 0.000000
vt 3999.999999 0.000000 0.000000
vt 0.000000 1500.000000 0.000000
vt 3999.999999 1500.000000 0.000000
vt 0.000000 0.000000 0.000000
vt 3999.999999 0.000000 0.000000
vt 0.000000 1500.000000 0.000000
vt 3999.999999 1500.000000 0.000000
vt 0.000000 0.000000 0.000000
vt 3999.999999 0.000000 0.000000
vt 0.000000 1500.000000 0.000000
vt 3999.999999 1500.000000 0.000000
vt 0.000000 0.000000 0.000000
vt 3999.999999 0.000000 0.000000
vt 0.000000 1500.000000 0.000000
vt 3999.999999 1500.000000 0.000000
vt 0.000000 0.000000 0.000000
vt 4100.000008 0.000000 0.000000
vt 0.000000 1500.000000 0.000000
vt 4100.000008 1500.000000 0.000000
vt 0.000000 0.000000 0.000000
vt 4100.000008 0.000000 0.000000
vt 0.000000 1500.000000 0.000000
vt 4100.000008 1500.000000 0.000000
vt 0.000000 0.000000 0.000000
vt 4100.000008 0.000000 0.000000
vt 0.000000 1500.000000 0.000000
vt 4100.000008 1500.000000 0.000000
vt 0.000000 0.000000 0.000000
vt 4100.000008 0.000000 0.000000
vt 0.000000 1500.000000 0.000000
vt 4100.000008 1500.000000 0.000000
vt 2000.000000 2000.000000 0.000000
vt -2050.000000 2050.000000 0.000000
vt -2000.000000 2000.000000 0.000000
vt -2050.000000 -2050.000000 0.000000
vt -2000.000000 -2000.000000 0.000000
vt 2050.000000 -2050.000000 0.000000
vt 2000.000000 -2000.000000 0.000000
vt 2050.000000 2050.000000 0.000000
vt -2000.000000 2000.000000 0.000000
vt -2050.000000 -2050.000000 0.000000
vt -2000.000000 -2000.000000 0.000000
vt 2050.000000 -2050.000000 0.000000
vt 2000.000000 -2000.000000 0.000000
vt 2000.000000 2000.000000 0.000000
vt 2050.000000 2050.000000 0.000000
vt -2050.000000 2050.000000 0.000000
vn 0.000000 0.000000 100.000000
vn 0.000000 0.000000 100.000000
vn 0.000000 0.000000 100.000000
vn 0.000000 0.000000 100.000000
vn 100.000000 -0.000000 0.000000
vn 100.000000 -0.000000 0.000000
vn 100.000000 -0.000000 0.000000
vn 100.000000 -0.000000 0.000000
vn -0.000000 0.000000 -100.000000
vn -0.000000 0.000000 -100.000000
vn -0.000000 0.000000 -100.000000
vn -0.000000 0.000000 -100.000000
vn -100.000000 0.000000 0.000000
vn -100.000000 0.000000 0.000000
vn -100.000000 0.000000 0.000000
vn -100.000000 0.000000 0.000000
vn 0.000000 0.000000 -100.000000
vn 0.000000 0.000000 -100.000000
vn 0.000000 0.000000 -100.000000
vn 0.000000 0.000000 -100.000000
vn 100.000000 -0.000000 0.000000
vn 100.000000 -0.000000 0.000000
vn 100.000000 -0.000000 0.000000
vn 100.000000 -0.000000 0.000000
vn 0.000000 0.000000 100.000000
vn 0.000000 0.000000 100.000000
vn 0.000000 0.000000 100.000000
vn 0.000000 0.000000 100.000000
vn -100.000000 0.000000 0.000000
vn -100.000000 0.000000 0.000000
vn -100.000000 0.000000 0.000000
vn -100.000000 0.000000 0.000000
vn 0.000000 100.000000 0.000000
vn 0.000000 100.000000 0.000000
vn 0.000000 100.000000 0.000000
vn 0.000000 100.000000 0.000000
vn 0.000000 100.000000 0.000000
vn 0.000000 100.000000 0.000000
vn 0.000000 100.000000 0.000000
vn 0.000000 100.000000 0.000000
vn 0.000000 -100.000000 0.000000
vn 0.000000 -100.000000 0.000000
vn 0.000000 -100.000000 0.000000
vn 0.000000 -100.000000 0.000000
vn 0.000000 -100.000000 0.000000
vn 0.000000 -100.000000 0.000000
vn 0.000000 -100.000000 0.000000
vn 0.000000 -100.000000 0.000000
usemtl Wall1
f 1/1/1 2/2/2 4/3/3
f 4/3/3 2/2/2 3/4/4
usemtl Wall2
f 5/5/5 1/6/6 6/7/7
f 6/7/7 1/6/6 4/8/8
usemtl Wall4
f 7/9/9 5/10/10 8/11/11
f 8/11/11 5/10/10 6/12/12
usemtl Wall3
f 2/13/13 7/14/14 3/15/15
f 3/15/15 7/14/14 8/16/16
usemtl Floor
f 9/17/17 10/18/18 12/19/19
f 12/19/19 10/18/18 11/20/20
f 13/21/21 9/22/22 14/23/23
f 14/23/23 9/22/22 12/24/24
f 15/25/25 13/26/26 16/27/27
f 16/27/27 13/26/26 14/28/28
f 10/29/29 15/30/30 11/31/31
f 11/31/31 15/30/30 16/32/32
f 8/33/33 12/34/34 3/35/35
f 3/35/35 12/34/34 11/36/36
f 3/35/35 11/36/36 4/37/37
f 4/37/37 11/36/36 16/38/38
f 4/37/37 16/38/38 6/39/39
f 6/39/39 16/38/38 8/33/33
f 8/33/33 16/38/38 14/40/40
f 8/33/33 14/40/40 12/34/34
f 2/41/41 13/42/42 7/43/43
f 7/43/43 13/42/42 15/44/44
f 7/43/43 15/44/44 5/45/45
f 5/45/45 15/44/44 1/46/46
f 1/46/46 15/44/44 10/47/47
f 1/46/46 10/47/47 9/48/48
f 13/42/42 2/41/41 9/48/48
f 9/48/48 2/41/41 1/46/46

g Floor

v 20.500000 0.000000 20.500000
v -20.500000 0.000000 20.500000
v -20.500000 -0.500000 20.500000
v 20.500000 -0.500000 20.500000
v 20.500000 0.000000 -20.500000
v 20.500000 -0.500000 -20.500000
v -20.500000 0.000000 -20.500000
v -20.500000 -0.500000 -20.500000
vt -0.000000 0.000000 0.000000
vt 4100.000008 0.000000 0.000000
vt 0.000000 50.000000 0.000000
vt 4100.000008 50.000000 0.000000
vt 0.000000 0.000000 0.000000
vt 4100.000008 0.000000 0.000000
vt 0.000000 50.000000 0.000000
vt 4100.000008 50.000000 0.000000
vt 0.000000 0.000000 0.000000
vt 4100.000008 0.000000 0.000000
vt 0.000000 50.000000 0.000000
vt 4100.000008 50.000000 0.000000
vt -0.000000 0.000000 0.000000
vt 4100.000008 0.000000 0.000000
vt 0.000000 50.000000 0.000000
vt 4100.000008 50.000000 0.000000
vt -2050.000000 -2050.000000 0.000000
vt 2050.000000 -2050.000000 0.000000
vt -2050.000000 2050.000000 0.000000
vt 2050.000000 2050.000000 0.000000
vt -2050.000000 -2050.000000 0.000000
vt 2050.000000 -2050.000000 0.000000
vt -2050.000000 2050.000000 0.000000
vt 2050.000000 2050.000000 0.000000
vn 0.000000 0.000000 100.000000
vn 0.000000 0.000000 100.000000
vn 0.000000 0.000000 100.000000
vn 0.000000 0.000000 100.000000
vn 100.000000 0.000000 0.000000
vn 100.000000 0.000000 0.000000
vn 100.000000 0.000000 0.000000
vn 100.000000 0.000000 0.000000
vn 0.000000 0.000000 -100.000000
vn 0.000000 0.000000 -100.000000
vn 0.000000 0.000000 -100.000000
vn 0.000000 0.000000 -100.000000
vn -100.000000 0.000000 0.000000
vn -100.000000 0.000000 0.000000
vn -100.000000 0.000000 0.000000
vn -100.000000 0.000000 0.000000
vn 0.000000 100.000000 0.000000
vn 0.000000 100.000000 0.000000
vn 0.000000 100.000000 0.000000
vn 0.000000 100.000000 0.000000
vn 0.000000 -100.000000 0.000000
vn 0.000000 -100.000000 0.000000
vn 0.000000 -100.000000 0.000000
vn 0.000000 -100.000000 0.000000
usemtl Floor
f 17/49/49 18/50/50 20/51/51
f 20/51/51 18/50/50 19/52/52
f 21/53/53 17/54/54 22/55/55
f 22/55/55 17/54/54 20/56/56
f 23/57/57 21/58/58 24/59/59
f 24/59/59 21/58/58 22/60/60
f 18/61/61 23/62/62 19/63/63
f 19/63/63 23/62/62 24/64/64
f 18/65/65 17/66/66 23/67/67
f 23/67/67 17/66/66 21/68/68
f 19/69/69 24/70/70 20/71/71
f 20/71/71 24/70/70 22/72/72

# 24 vertices
# 72 texture params
# 72 normals
# 44 facets

# 2 groups
